<svg viewBox="0 0 22 22" xmlns="http://www.w3.org/2000/svg">
    <style type="text/css" id="current-color-scheme">
      .ColorScheme-Text {
        color:#232629;
      }
    </style>
    <path
        style="fill:currentColor;fill-opacity:1;stroke:none"
        class="ColorScheme-Text"
        d="m17 18h-12v-13.99904c3.17453.00829 6.1014.08692 8.3088.82272 1.1901.39672 2.0904.9613 2.6987 1.74339.6016.77343.9925 1.85585.9925 3.43293zm1-8c0-6.66641-6.3487-6.9841-13-6.99924-.33283-.00076-.66641-.00076-1-.00076v16h14zm-7.356 6h-4.144v-.696l2.84-4.152h-2.76v-.864h3.984v.696l-2.832 4.152h2.912zm2.604-5.712c.5013 0 .9147.0613 1.24.184.3253.1226.568.3093.728.56.16.2453.24.5573.24.936 0 .2773-.0533.5146-.16.712-.1013.1973-.2347.3626-.4.496-.1653.128-.344.232-.536.312l1.64 2.512h-1.152l-1.368-2.256h-.832v2.256h-1.024v-5.712zm-.064.856h-.536v1.76h.568c.2827 0 .512-.0347.688-.104.176-.0694.304-.1707.384-.304.0853-.1334.128-.2987.128-.496 0-.208-.0453-.3734-.136-.496-.0907-.128-.2267-.2187-.408-.272-.176-.0587-.4053-.088-.688-.088z" fill-rule="evenodd"/>
</svg>
