<svg viewBox="0 0 22 22" xmlns="http://www.w3.org/2000/svg">
    <style type="text/css" id="current-color-scheme">
      .ColorScheme-Text {
        color:#232629;
      }
    </style>
    <g
        style="fill:currentColor;fill-opacity:1;stroke:none"
        class="ColorScheme-Text"
        clip-rule="evenodd"
        fill-rule="evenodd" >

        <path d="m18 11.2371c-.9523-1.88483-1.5926-2.86907-2.35-3.4371-.7329-.54965-1.7081-.8-3.65-.8h-8v8h14zm-15-5.2371v10h16v-5c-2-4-3-5-7-5z"/>
        <path d="m10.6321 8.288c.5013 0 .9146.06133 1.24.184.3253.12267.568.30933.728.56.16.24533.24.55733.24.936 0 .2773-.0534.5147-.16.712-.1014.1973-.2347.3627-.4.496-.1654.128-.344.232-.536.312l1.64 2.512h-1.152l-1.368-2.256h-.832v2.256h-1.02404v-5.712zm-.064.856h-.536v1.76h.568c.2826 0 .512-.0347.688-.104s.304-.1707.384-.304c.0853-.1333.128-.2987.128-.496 0-.208-.0454-.37333-.136-.496-.0907-.128-.2267-.21867-.408-.272-.176-.05867-.4054-.088-.688-.088z"/>
    </g>
</svg>
