<svg fill="none" height="32" viewBox="0 0 32 32" width="32" xmlns="http://www.w3.org/2000/svg" xmlns:xlink="http://www.w3.org/1999/xlink">
    <linearGradient id="a" gradientUnits="userSpaceOnUse" x1="16" x2="16" y1="3" y2="29">
        <stop offset="0" stop-color="#555c60"/>
        <stop offset="1" stop-color="#2e3a46"/>
    </linearGradient>
    <linearGradient id="b">
        <stop offset="0" stop-color="#b0c0c1"/>
        <stop offset="1" stop-color="#738395"/>
    </linearGradient>
    <linearGradient id="c" gradientUnits="userSpaceOnUse" x1="16" x2="16" xlink:href="#b" y1="5" y2="27"/>
    <linearGradient id="d" gradientUnits="userSpaceOnUse" x1="20" x2="25" y1="20" y2="25">
        <stop offset="0"/>
        <stop offset="1" stop-opacity="0"/>
    </linearGradient>
    <linearGradient id="e" gradientUnits="userSpaceOnUse" x1="16" x2="16" xlink:href="#b" y1="10" y2="22"/>
    <path d="m29 16c0 7.1797-5.8203 13-13 13s-13-5.8203-13-13 5.8203-13 13-13 13 5.8203 13 13z" fill="url(#a)"/>
    <path d="m22 17c0 3.3137-2.6863 6-6 6s-6-2.6863-6-6 2.6863-6 6-6 6 2.6863 6 6z" fill="#000" opacity=".3"/>
    <g fill="url(#c)">
        <path d="m17.7321 8-1.7321-3-1.7321 3z"/>
        <path d="m14.2679 24 1.7321 3 1.7321-3z"/>
        <path d="m27 16-3 1.732v-3.4641z"/>
        <path d="m8 17.732-3-1.732 3-1.7321z"/>
    </g>
    <path d="m20.2426 11.7574c2.3432 2.3431 2.3432 6.1421 0 8.4853-2.3431 2.3431-6.1421 2.3431-8.4853 0l8.7574 8.7573h8.4705v-8.5z" fill="url(#d)" opacity=".1"/>
    <path d="m20.2426 11.7574c2.3432 2.3431 2.3432 6.1421 0 8.4852-2.3431 2.3432-6.1421 2.3432-8.4852 0-2.34319-2.3431-2.34319-6.1421 0-8.4852 2.3431-2.34319 6.1421-2.34319 8.4852 0z" fill="url(#e)"/>
    <g fill="#000" opacity=".3">
        <path d="m15.9461 16.852c0 .332-.04.634-.12.906-.08.268-.204.5-.372.696s-.382.346-.642.45-.568.156-.924.156c-.352 0-.658-.052-.918-.156-.26-.108-.474-.258-.642-.45-.168-.196-.294-.43-.378-.702-.08-.272-.12-.574-.12-.906 0-.444.072-.83.216-1.158.148-.328.374-.582.678-.762.308-.184.698-.276 1.17-.276.476 0 .864.092 1.164.276.304.18.528.436.672.768.144.328.216.714.216 1.158zm-3.042 0c0 .28.034.522.102.726.068.2.174.354.318.462.148.108.336.162.564.162.236 0 .426-.054.57-.162s.248-.262.312-.462c.068-.204.102-.446.102-.726 0-.424-.076-.756-.228-.996-.148-.24-.398-.36-.75-.36-.232 0-.422.056-.57.168-.144.108-.25.264-.318.468-.068.2-.102.44-.102.72z"/>
        <path d="m20.3255 19h-1.164l-.99-1.728-.366.24v1.488h-1.026v-4.284h1.026v1.914c.052-.088.108-.176.168-.264.064-.088.126-.174.186-.258l1.044-1.392h1.122l-1.428 1.908z"/>
    </g>
    <path d="m15.9461 15.852c0 .332-.04.634-.12.906-.08.268-.204.5-.372.696s-.382.346-.642.45-.568.156-.924.156c-.352 0-.658-.052-.918-.156-.26-.108-.474-.258-.642-.45-.168-.196-.294-.43-.378-.702-.08-.272-.12-.574-.12-.906 0-.444.072-.83.216-1.158.148-.328.374-.582.678-.762.308-.184.698-.276 1.17-.276.476 0 .864.092 1.164.276.304.18.528.436.672.768.144.328.216.714.216 1.158zm-3.042 0c0 .28.034.522.102.726.068.2.174.354.318.462.148.108.336.162.564.162.236 0 .426-.054.57-.162s.248-.262.312-.462c.068-.204.102-.446.102-.726 0-.424-.076-.756-.228-.996-.148-.24-.398-.36-.75-.36-.232 0-.422.056-.57.168-.144.108-.25.264-.318.468-.068.2-.102.44-.102.72z" fill="#fff"/>
    <path d="m20.3255 18h-1.164l-.99-1.728-.366.24v1.488h-1.026v-4.284h1.026v1.914c.052-.088.108-.176.168-.264.064-.088.126-.174.186-.258l1.044-1.392h1.122l-1.428 1.908z" fill="#fff"/>
    <path d="m28.9906 16.5c.0062-.1659.0094-.3326.0094-.5 0-7.1797-5.8203-13-13-13s-13 5.8203-13 13c0 .1674.00317.3341.00944.5.26275-6.94799 5.97828-12.5 12.99056-12.5 7.0123 0 12.7278 5.55201 12.9906 12.5z" fill="#616a6c"/>
    <path d="m28.9906 15.5c.0062.1659.0094.3326.0094.5 0 7.1797-5.8203 13-13 13s-13-5.8203-13-13c0-.1674.00317-.3341.00944-.5.26275 6.948 5.97828 12.5 12.99056 12.5 7.0123 0 12.7278-5.552 12.9906-12.5z" fill="#2b3238"/>
</svg>
