<svg fill="none" height="32" viewBox="0 0 32 32" width="32" xmlns="http://www.w3.org/2000/svg" xmlns:xlink="http://www.w3.org/1999/xlink">
    <linearGradient id="a" gradientUnits="userSpaceOnUse" x1="16" x2="16" y1="3" y2="29">
        <stop offset="0" stop-color="#555c60"/>
        <stop offset="1" stop-color="#2e3a46"/>
    </linearGradient>
    <circle cx="16" cy="16" fill="url(#a)" r="13"/>
    <g fill="#000" opacity=".3">
        <path d="m16.9999 10.0858-1-.99998-6.9999 6.99988v1.9143h.99991v4c0 1.1046.89539 2 1.99999 2h8c1.1046 0 2-.8954 2-2v-4h1.0001v-2h-3.0001v6h-2.5v-4h-3v4h-2.5l.0001-6.0858 3.9999-4 1 1z"/>
        <path d="m19 11h2v3h-2z"/>
    </g>
    <path d="m16.9999 9.08581-1-.99999-6.9999 6.99988v1.9143h.99991v4c0 1.1046.89539 2 1.99999 2h8c1.1046 0 2-.8954 2-2v-4h1.0001v-2h-3.0001v6h-2.5v-4h-3v4h-2.5l.0001-6.0858 3.9999-4 1 1z" fill="#fff"/>
    <path d="m19 10h2v3h-2z" fill="#fff"/>
    <path d="m28.9906 16.5c.0062-.1659.0094-.3326.0094-.5 0-7.1797-5.8203-13-13-13s-13 5.8203-13 13c0 .1674.00317.3341.00944.5.26275-6.94799 5.97828-12.5 12.99056-12.5 7.0123 0 12.7278 5.55201 12.9906 12.5z" fill="#616a6c"/>
    <path d="m28.9906 15.5c.0062.1659.0094.3326.0094.5 0 7.1797-5.8203 13-13 13s-13-5.8203-13-13c0-.1674.00317-.3341.00944-.5.26275 6.948 5.97828 12.5 12.99056 12.5 7.0123 0 12.7278-5.552 12.9906-12.5z" fill="#2b3238"/>
</svg>
