<?xml version="1.0" encoding="UTF-8"?>
<svg width="32" height="32" fill="none" viewBox="0 0 32 32" xmlns="http://www.w3.org/2000/svg">
    <path d="M3 8V24H29C29 19 28.6017 12.8977 24.5361 9.7011C22.8818 8.40039 20.8582 8 17.5 8H3Z" clip-rule="evenodd" fill="url(#a)" fill-rule="evenodd"/>
    <path d="M28.9939 23C28.9983 23.3373 29 23.6711 29 24H3V23H28.9939Z" fill="#2B3238"/>
    <path d="M3 9V8H17.5C20.8582 8 22.8818 8.40039 24.5361 9.7011C28.6017 12.8977 29 19 29 24H28.9939C28.9317 19.2096 28.3342 13.6874 24.5361 10.7011C22.8818 9.40039 20.8582 9 17.5 9H3Z" fill="#616A6C"/>
    <path d="m14.466 13.146c0.7113 0 1.3017 0.088 1.771 0.264s0.8177 0.4363 1.045 0.781c0.2347 0.3373 0.352 0.7663 0.352 1.287 0 0.3373-0.0587 0.638-0.176 0.902s-0.2823 0.495-0.495 0.693c-0.2053 0.198-0.4437 0.3667-0.715 0.506l2.299 3.421h-2.178l-1.749-2.926h-0.682v2.926h-1.936v-7.854h2.464zm-0.066 1.507h-0.462v1.925h0.462c0.2787 0 0.5097-0.033 0.693-0.099 0.1907-0.0733 0.3337-0.1833 0.429-0.33 0.1027-0.154 0.154-0.352 0.154-0.594 0-0.198-0.044-0.363-0.132-0.495s-0.2273-0.231-0.418-0.297c-0.1907-0.0733-0.4327-0.11-0.726-0.11z" fill="#000" opacity=".2"/>
    <path d="m14.466 12.146c0.7113 0 1.3017 0.088 1.771 0.264s0.8177 0.4363 1.045 0.781c0.2347 0.3373 0.352 0.7663 0.352 1.287 0 0.3373-0.0587 0.638-0.176 0.902s-0.2823 0.495-0.495 0.693c-0.2053 0.198-0.4437 0.3667-0.715 0.506l2.299 3.421h-2.178l-1.749-2.926h-0.682v2.926h-1.936v-7.854h2.464zm-0.066 1.507h-0.462v1.925h0.462c0.2787 0 0.5097-0.033 0.693-0.099 0.1907-0.0733 0.3337-0.1833 0.429-0.33 0.1027-0.154 0.154-0.352 0.154-0.594 0-0.198-0.044-0.363-0.132-0.495s-0.2273-0.231-0.418-0.297c-0.1907-0.0733-0.4327-0.11-0.726-0.11z" fill="#fff"/>
    <defs>
        <linearGradient id="a" x1="16" x2="16" y1="8" y2="24" gradientUnits="userSpaceOnUse">
            <stop stop-color="#555C60" offset="0"/>
            <stop stop-color="#2E3A46" offset="1"/>
        </linearGradient>
    </defs>
</svg>
