<?xml version="1.0" encoding="UTF-8"?>
<svg width="32" height="32" fill="none" viewBox="0 0 32 32" xmlns="http://www.w3.org/2000/svg">
    <path d="m29 16c0 7.1797-5.8203 13-13 13s-13-5.8203-13-13 5.8203-13 13-13 13 5.8203 13 13z" fill="url(#a)"/>
    <path d="m21.074 22.5h-2.336l-2.8-4.56-2.816 4.56h-2.176l3.792-5.92-3.552-5.504h2.256l2.592 4.256 2.576-4.256h2.192l-3.568 5.584 3.84 5.84z" fill="#000" opacity=".2"/>
    <path d="m21.074 21.5h-2.336l-2.8-4.56-2.816 4.56h-2.176l3.792-5.92-3.552-5.504h2.256l2.592 4.256 2.576-4.256h2.192l-3.568 5.584 3.84 5.84z" fill="#fff"/>
    <path d="m28.991 16.5c0.0062-0.1659 0.0094-0.3326 0.0094-0.5 0-7.1797-5.8203-13-13-13s-13 5.8203-13 13c0 0.1674 0.00317 0.3341 0.00944 0.5 0.26275-6.948 5.9783-12.5 12.991-12.5 7.0123 0 12.728 5.552 12.991 12.5z" fill="#616A6C"/>
    <path d="m28.991 15.5c0.0062 0.1659 0.0094 0.3326 0.0094 0.5 0 7.1797-5.8203 13-13 13s-13-5.8203-13-13c0-0.1674 0.00317-0.3341 0.00944-0.5 0.26275 6.948 5.9783 12.5 12.991 12.5 7.0123 0 12.728-5.552 12.991-12.5z" fill="#2B3238"/>
    <defs>
        <linearGradient id="a" x1="16" x2="16" y1="3" y2="29" gradientUnits="userSpaceOnUse">
            <stop stop-color="#555C60" offset="0"/>
            <stop stop-color="#2E3A46" offset="1"/>
        </linearGradient>
    </defs>
</svg>
