<?xml version="1.0" encoding="UTF-8"?>
<svg width="32" height="32" fill="none" viewBox="0 0 32 32" xmlns="http://www.w3.org/2000/svg">
    <path d="m29 16c0 7.1797-5.8203 13-13 13s-13-5.8203-13-13 5.8203-13 13-13 13 5.8203 13 13z" fill="url(#a)"/>
    <path d="m15.616 11.076c0.992 0 1.824 0.096 2.496 0.288 0.672 0.1813 1.1734 0.48 1.504 0.896 0.3414 0.416 0.512 0.976 0.512 1.68 0 0.4373-0.0746 0.832-0.224 1.184-0.1493 0.352-0.368 0.64-0.656 0.864-0.2773 0.224-0.624 0.3733-1.04 0.448v0.08c0.4267 0.0747 0.8054 0.2133 1.136 0.416 0.3414 0.192 0.608 0.4747 0.8 0.848 0.2027 0.3627 0.304 0.8427 0.304 1.44 0 0.6933-0.1653 1.2853-0.496 1.776-0.3306 0.4907-0.8053 0.864-1.424 1.12-0.608 0.256-1.3333 0.384-2.176 0.384h-4.176v-11.424h3.44zm0.272 4.656c0.8107 0 1.3654-0.128 1.664-0.384 0.3094-0.256 0.464-0.6347 0.464-1.136 0-0.512-0.1813-0.88-0.544-1.104-0.3626-0.224-0.944-0.336-1.744-0.336h-1.504v2.96h1.664zm-1.664 1.648v3.408h1.856c0.832 0 1.408-0.16 1.728-0.48 0.3307-0.32 0.496-0.7467 0.496-1.28 0-0.3413-0.0693-0.6347-0.208-0.88-0.1386-0.2453-0.3786-0.432-0.72-0.56-0.3413-0.1387-0.8053-0.208-1.392-0.208h-1.76z" fill="#000" opacity=".2"/>
    <path d="m15.616 10.076c0.992 0 1.824 0.096 2.496 0.288 0.672 0.1813 1.1734 0.48 1.504 0.896 0.3414 0.416 0.512 0.976 0.512 1.68 0 0.4373-0.0746 0.832-0.224 1.184-0.1493 0.352-0.368 0.64-0.656 0.864-0.2773 0.224-0.624 0.3733-1.04 0.448v0.08c0.4267 0.0747 0.8054 0.2133 1.136 0.416 0.3414 0.192 0.608 0.4747 0.8 0.848 0.2027 0.3627 0.304 0.8427 0.304 1.44 0 0.6933-0.1653 1.2853-0.496 1.776-0.3306 0.4907-0.8053 0.864-1.424 1.12-0.608 0.256-1.3333 0.384-2.176 0.384h-4.176v-11.424h3.44zm0.272 4.656c0.8107 0 1.3654-0.128 1.664-0.384 0.3094-0.256 0.464-0.6347 0.464-1.136 0-0.512-0.1813-0.88-0.544-1.104-0.3626-0.224-0.944-0.336-1.744-0.336h-1.504v2.96h1.664zm-1.664 1.648v3.408h1.856c0.832 0 1.408-0.16 1.728-0.48 0.3307-0.32 0.496-0.7467 0.496-1.28 0-0.3413-0.0693-0.6347-0.208-0.88-0.1386-0.2453-0.3786-0.432-0.72-0.56-0.3413-0.1387-0.8053-0.208-1.392-0.208h-1.76z" fill="#fff"/>
    <path d="m28.991 16.5c0.0062-0.1659 0.0094-0.3326 0.0094-0.5 0-7.1797-5.8203-13-13-13s-13 5.8203-13 13c0 0.1674 0.00317 0.3341 0.00944 0.5 0.26275-6.948 5.9783-12.5 12.991-12.5 7.0123 0 12.728 5.552 12.991 12.5z" fill="#616A6C"/>
    <path d="m28.991 15.5c0.0062 0.1659 0.0094 0.3326 0.0094 0.5 0 7.1797-5.8203 13-13 13s-13-5.8203-13-13c0-0.1674 0.00317-0.3341 0.00944-0.5 0.26275 6.948 5.9783 12.5 12.991 12.5 7.0123 0 12.728-5.552 12.991-12.5z" fill="#2B3238"/>
    <defs>
        <linearGradient id="a" x1="16" x2="16" y1="3" y2="29" gradientUnits="userSpaceOnUse">
            <stop stop-color="#555C60" offset="0"/>
            <stop stop-color="#2E3A46" offset="1"/>
        </linearGradient>
    </defs>
</svg>
