<?xml version="1.0" encoding="UTF-8"?>
<svg width="32" height="32" fill="none" viewBox="0 0 32 32" xmlns="http://www.w3.org/2000/svg">
    <path d="m29 16c0 7.1797-5.8203 13-13 13s-13-5.8203-13-13 5.8203-13 13-13 13 5.8203 13 13z" fill="url(#a)"/>
    <path d="m19.177 22-1.04-3.024h-4.304l-1.024 3.024h-2.176l4.192-11.472h2.336l4.192 11.472h-2.176zm-2.56-7.728c-0.0427-0.1493-0.1067-0.352-0.192-0.608s-0.1707-0.5173-0.256-0.784c-0.0747-0.2773-0.1333-0.5067-0.176-0.688-0.0533 0.2133-0.1227 0.4587-0.208 0.736-0.0747 0.2773-0.1493 0.5387-0.224 0.784-0.064 0.2453-0.1173 0.432-0.16 0.56l-1.008 2.944h3.216l-0.992-2.944z" fill="#000" opacity=".2"/>
    <path d="m19.177 21-1.04-3.024h-4.304l-1.024 3.024h-2.176l4.192-11.472h2.336l4.192 11.472h-2.176zm-2.56-7.728c-0.0427-0.1493-0.1067-0.352-0.192-0.608s-0.1707-0.5173-0.256-0.784c-0.0747-0.2773-0.1333-0.5067-0.176-0.688-0.0533 0.2133-0.1227 0.4587-0.208 0.736-0.0747 0.2773-0.1493 0.5387-0.224 0.784-0.064 0.2453-0.1173 0.432-0.16 0.56l-1.008 2.944h3.216l-0.992-2.944z" fill="#fff"/>
    <path d="m28.991 16.5c0.0062-0.1659 0.0094-0.3326 0.0094-0.5 0-7.1797-5.8203-13-13-13s-13 5.8203-13 13c0 0.1674 0.00317 0.3341 0.00944 0.5 0.26275-6.948 5.9783-12.5 12.991-12.5 7.0123 0 12.728 5.552 12.991 12.5z" fill="#616A6C"/>
    <path d="m28.991 15.5c0.0062 0.1659 0.0094 0.3326 0.0094 0.5 0 7.1797-5.8203 13-13 13s-13-5.8203-13-13c0-0.1674 0.00317-0.3341 0.00944-0.5 0.26275 6.948 5.9783 12.5 12.991 12.5 7.0123 0 12.728-5.552 12.991-12.5z" fill="#2B3238"/>
    <defs>
        <linearGradient id="a" x1="16" x2="16" y1="3" y2="29" gradientUnits="userSpaceOnUse">
            <stop stop-color="#555C60" offset="0"/>
            <stop stop-color="#2E3A46" offset="1"/>
        </linearGradient>
    </defs>
</svg>
