<?xml version="1.0" encoding="UTF-8"?>
<svg width="32" height="32" fill="none" viewBox="0 0 32 32" xmlns="http://www.w3.org/2000/svg">
    <path d="M7 3.00123C18 3 27 4 27 15V29H5V3L7 3.00123Z" clip-rule="evenodd" fill="url(#a)" fill-rule="evenodd"/>
    <path d="M27 15C27 4 18 3 7 3.00123L5 3V4L7 4.00123C18 4 27 5 27 16V15Z" fill="#616A6C"/>
    <rect transform="matrix(-1 0 0 1 27 28)" width="22" height="1" fill="#2B3238"/>
    <g fill="#000" opacity=".2">
        <path d="m15.103 25h-5.995v-1.221l3.542-5.06h-3.465v-1.573h5.83v1.221l-3.542 5.06h3.63v1.573z"/>
        <path d="m19.417 17.146c0.7114 0 1.3017 0.088 1.771 0.264 0.4694 0.176 0.8177 0.4363 1.045 0.781 0.2347 0.3373 0.352 0.7663 0.352 1.287 0 0.3373-0.0586 0.638-0.176 0.902-0.1173 0.264-0.2823 0.495-0.495 0.693-0.2053 0.198-0.4436 0.3667-0.715 0.506l2.299 3.421h-2.178l-1.749-2.926h-0.682v2.926h-1.936v-7.854h2.464zm-0.066 1.507h-0.462v1.925h0.462c0.2787 0 0.5097-0.033 0.693-0.099 0.1907-0.0733 0.3337-0.1833 0.429-0.33 0.1027-0.154 0.154-0.352 0.154-0.594 0-0.198-0.044-0.363-0.132-0.495s-0.2273-0.231-0.418-0.297c-0.1906-0.0733-0.4326-0.11-0.726-0.11z"/>
    </g>
    <path d="m15.103 24h-5.995v-1.221l3.542-5.06h-3.465v-1.573h5.83v1.221l-3.542 5.06h3.63v1.573z" fill="#fff"/>
    <path d="m19.417 16.146c0.7114 0 1.3017 0.088 1.771 0.264 0.4694 0.176 0.8177 0.4363 1.045 0.781 0.2347 0.3373 0.352 0.7663 0.352 1.287 0 0.3373-0.0586 0.638-0.176 0.902-0.1173 0.264-0.2823 0.495-0.495 0.693-0.2053 0.198-0.4436 0.3667-0.715 0.506l2.299 3.421h-2.178l-1.749-2.926h-0.682v2.926h-1.936v-7.854h2.464zm-0.066 1.507h-0.462v1.925h0.462c0.2787 0 0.5097-0.033 0.693-0.099 0.1907-0.0733 0.3337-0.1833 0.429-0.33 0.1027-0.154 0.154-0.352 0.154-0.594 0-0.198-0.044-0.363-0.132-0.495s-0.2273-0.231-0.418-0.297c-0.1906-0.0733-0.4326-0.11-0.726-0.11z" fill="#fff"/>
    <defs>
        <linearGradient id="a" x1="16" x2="16" y1="3" y2="29" gradientUnits="userSpaceOnUse">
            <stop stop-color="#555C60" offset="0"/>
            <stop stop-color="#2E3A46" offset="1"/>
        </linearGradient>
    </defs>
</svg>
