<?xml version="1.0" encoding="UTF-8"?>
<svg width="32" height="32" fill="none" viewBox="0 0 32 32" xmlns="http://www.w3.org/2000/svg">
    <path d="m29 16c0 7.1797-5.8203 13-13 13s-13-5.8203-13-13 5.8203-13 13-13 13 5.8203 13 13z" fill="url(#a)"/>
    <path d="m9.3308 17h1.6693v4.5c0 0.8284 0.6716 1.5 1.5 1.5h6.9999c0.8284 0 1.4999-0.6716 1.4999-1.5v-4.5h1.6693c0.309 0 0.5075-0.2564 0.5008-0.5172v-0.9828h-14.34v0.9828c-0.00673 0.2608 0.19179 0.5172 0.50084 0.5172zm4.6692 0v2h4v-2h-4z" clip-rule="evenodd" fill="#000" fill-rule="evenodd" opacity=".2"/>
    <path d="m16 9-6.9985 6.1237c-0.34746 0.304-0.13243 0.8763 0.32925 0.8763h1.6693v4.5c0 0.8284 0.6716 1.5 1.5 1.5h7c0.8284 0 1.5-0.6716 1.5-1.5v-4.5h1.6693c0.4617 0 0.6767-0.5723 0.3292-0.8763l-6.9985-6.1237zm1.9999 7h-4v3h4v-3z" clip-rule="evenodd" fill="#fff" fill-rule="evenodd"/>
    <path d="m28.991 16.5c0.0062-0.1659 0.0094-0.3326 0.0094-0.5 0-7.1797-5.8203-13-13-13s-13 5.8203-13 13c0 0.1674 0.00317 0.3341 0.00944 0.5 0.26275-6.948 5.9783-12.5 12.991-12.5 7.0123 0 12.728 5.552 12.991 12.5z" fill="#616A6C"/>
    <path d="m28.991 15.5c0.0062 0.1659 0.0094 0.3326 0.0094 0.5 0 7.1797-5.8203 13-13 13s-13-5.8203-13-13c0-0.1674 0.00317-0.3341 0.00944-0.5 0.26275 6.948 5.9783 12.5 12.991 12.5 7.0123 0 12.728-5.552 12.991-12.5z" fill="#2B3238"/>
    <defs>
        <linearGradient id="a" x1="16" x2="16" y1="3" y2="29" gradientUnits="userSpaceOnUse">
            <stop stop-color="#555C60" offset="0"/>
            <stop stop-color="#2E3A46" offset="1"/>
        </linearGradient>
    </defs>
</svg>
