<svg fill="none" height="32" viewBox="0 0 32 32" width="32" xmlns="http://www.w3.org/2000/svg" xmlns:xlink="http://www.w3.org/1999/xlink">
    <linearGradient id="a" gradientUnits="userSpaceOnUse" x1="16" x2="16" y1="3" y2="29">
        <stop offset="0" stop-color="#555c60"/>
        <stop offset="1" stop-color="#2e3a46"/>
    </linearGradient>
    <circle cx="16" cy="16" fill="url(#a)" r="13"/>
    <path d="m28.9906 16.5c.0062-.1659.0094-.3326.0094-.5 0-7.1797-5.8203-13-13-13s-13 5.8203-13 13c0 .1674.00317.3341.00944.5.26275-6.94799 5.97828-12.5 12.99056-12.5 7.0123 0 12.7278 5.55201 12.9906 12.5z" fill="#616a6c"/>
    <path d="m28.9906 15.5c.0062.1659.0094.3326.0094.5 0 7.1797-5.8203 13-13 13s-13-5.8203-13-13c0-.1674.00317-.3341.00944-.5.26275 6.948 5.97828 12.5 12.99056 12.5 7.0123 0 12.7278-5.552 12.9906-12.5z" fill="#2b3238"/>
    <g fill="#000" opacity=".3">
        <path d="m15.484 16.988c0 .784-.0794 1.4933-.238 2.128-.1587.6346-.4014 1.1806-.728 1.638-.3174.448-.7234.7933-1.218 1.036-.4854.2333-1.0594.35-1.722.35-.6627 0-1.2414-.1214-1.73604-.364-.48533-.2427-.89133-.588-1.218-1.036-.32667-.4574-.56933-1.0034-.728-1.638-.15867-.6347-.238-1.344-.238-2.128 0-1.092.14467-2.0207.434-2.786.29867-.7654.73733-1.344 1.316-1.736.57867-.4014 1.30664-.602 2.18404-.602.8866 0 1.6146.21 2.184.63.5786.42 1.008 1.0126 1.288 1.778.28.7653.42 1.6753.42 2.73zm-5.75404 0c0 .7466.06533 1.3766.196 1.89.14004.504.34534.8866.61604 1.148.28.2613.6253.392 1.036.392.4293 0 .7793-.126 1.05-.378.2706-.2614.4713-.644.602-1.148.1306-.5134.196-1.148.196-1.904 0-1.1294-.1494-1.9834-.448-2.562-.2894-.588-.7514-.882-1.386-.882-.42 0-.77.1353-1.05.406-.2707.2613-.476.6486-.61604 1.162-.13067.504-.196 1.1293-.196 1.876z"/>
        <path d="m23.8881 22h-2.212l-1.974-4.116-.7.588v3.528h-1.974v-9.996h1.974v4.592c.0747-.1774.168-.3734.28-.588.112-.2147.2427-.448.392-.7l2.044-3.304h2.142l-2.758 4.438z"/>
    </g>
    <g fill="#fff">
        <path d="m15.484 15.988c0 .784-.0794 1.4933-.238 2.128-.1587.6346-.4014 1.1806-.728 1.638-.3174.448-.7234.7933-1.218 1.036-.4854.2333-1.0594.35-1.722.35-.6627 0-1.2414-.1214-1.73604-.364-.48533-.2427-.89133-.588-1.218-1.036-.32667-.4574-.56933-1.0034-.728-1.638-.15867-.6347-.238-1.344-.238-2.128 0-1.092.14467-2.0207.434-2.786.29867-.7654.73733-1.344 1.316-1.736.57867-.4014 1.30664-.602 2.18404-.602.8866 0 1.6146.21 2.184.63.5786.42 1.008 1.0126 1.288 1.778.28.7653.42 1.6753.42 2.73zm-5.75404 0c0 .7466.06533 1.3766.196 1.89.14004.504.34534.8866.61604 1.148.28.2613.6253.392 1.036.392.4293 0 .7793-.126 1.05-.378.2706-.2614.4713-.644.602-1.148.1306-.5134.196-1.148.196-1.904 0-1.1294-.1494-1.9834-.448-2.562-.2894-.588-.7514-.882-1.386-.882-.42 0-.77.1353-1.05.406-.2707.2613-.476.6486-.61604 1.162-.13067.504-.196 1.1293-.196 1.876z"/>
        <path d="m23.8881 21h-2.212l-1.974-4.116-.7.588v3.528h-1.974v-9.996h1.974v4.592c.0747-.1774.168-.3734.28-.588.112-.2147.2427-.448.392-.7l2.044-3.304h2.142l-2.758 4.438z"/>
    </g>
</svg>
