<svg fill="none" height="32" viewBox="0 0 32 32" width="32" xmlns="http://www.w3.org/2000/svg" xmlns:xlink="http://www.w3.org/1999/xlink">
    <linearGradient id="a" gradientUnits="userSpaceOnUse" x1="16" x2="16" y1="3" y2="29">
        <stop offset="0" stop-color="#555c60"/>
        <stop offset="1" stop-color="#2e3a46"/>
    </linearGradient>
    <path d="m29 16c0 7.1797-5.8203 13-13 13s-13-5.8203-13-13 5.8203-13 13-13 13 5.8203 13 13z" fill="url(#a)"/>
    <path clip-rule="evenodd" d="m16.0001 9.58582 6.7071 6.70708-1.4142 1.4142-4.2929-4.2929v11.0858h-2v-11.0858l-4.2929 4.2929-1.41423-1.4142z" fill="#000" fill-rule="evenodd" opacity=".3"/>
    <path clip-rule="evenodd" d="m16.0001 8.58582 6.7071 6.70708-1.4142 1.4142-4.2929-4.2929v11.0858h-2v-11.0858l-4.2929 4.2929-1.41423-1.4142z" fill="#fff" fill-rule="evenodd"/>
    <path d="m28.9906 16.5c.0062-.1659.0094-.3326.0094-.5 0-7.1797-5.8203-13-13-13s-13 5.8203-13 13c0 .1674.00317.3341.00944.5.26275-6.94799 5.97828-12.5 12.99056-12.5 7.0123 0 12.7278 5.55201 12.9906 12.5z" fill="#616a6c"/>
    <path d="m28.9906 15.5c.0062.1659.0094.3326.0094.5 0 7.1797-5.8203 13-13 13s-13-5.8203-13-13c0-.1674.00317-.3341.00944-.5.26275 6.948 5.97828 12.5 12.99056 12.5 7.0123 0 12.7278-5.552 12.9906-12.5z" fill="#2b3238"/>
</svg>
